<svg width="20.049988" height="15.750000" viewBox="0 0 20.05 15.75" fill="none" xmlns="http://www.w3.org/2000/svg" xmlns:xlink="http://www.w3.org/1999/xlink">
	<desc>
			Created with Pixso.
	</desc>
	<defs/>
	<path id="Vector" d="M18.75 0.05L17.5 0.05L16.65 0.05L3.75 0.05L1.1 0C0.75 0.1 0.39 0.35 0.2 0.75C0.04 1 0 1.25 0 1.55L0 8.44C0.54 8.3 1.14 8.19 1.75 8.19C5.2 8.19 8 10.89 8 14.2C8 14.75 7.95 15.25 7.79 15.75L18.75 15.75C19.45 15.75 20.04 15.1 20.04 14.3L20.04 11.05L13.95 11.05C13.7 11.05 13.55 10.85 13.55 10.64L13.55 5.3C13.55 5.05 13.75 4.89 13.95 4.89L20.04 4.89L20.04 1.55C20.04 0.75 19.45 0.05 18.75 0.05Z" fill="#F7A93B" fill-opacity="1.000000" fill-rule="nonzero"/>
</svg>
